<mxfile host="app.diagrams.net" modified="2023-08-24T16:18:04.192Z" agent="Mozilla/5.0 (Windows NT 10.0; Win64; x64) AppleWebKit/537.36 (KHTML, like Gecko) Chrome/116.0.0.0 Safari/537.36" etag="F4E3_cQ2a0Ka-01dnIQm" version="21.6.9" type="github">
  <diagram name="Page-1" id="16e2658f-23c8-b752-8be9-c03fbebb8bbe">
    <mxGraphModel dx="1434" dy="758" grid="1" gridSize="10" guides="1" tooltips="1" connect="1" arrows="1" fold="1" page="1" pageScale="1" pageWidth="1100" pageHeight="850" background="none" math="0" shadow="0">
      <root>
        <mxCell id="0" />
        <mxCell id="1" parent="0" />
        <mxCell id="I1mloNp9cYX9lCciqNsm-5" value="" style="rounded=1;whiteSpace=wrap;html=1;dashed=1;strokeWidth=2;" vertex="1" parent="1">
          <mxGeometry x="520" y="235" width="330" height="250" as="geometry" />
        </mxCell>
        <mxCell id="I1mloNp9cYX9lCciqNsm-7" style="edgeStyle=orthogonalEdgeStyle;rounded=0;orthogonalLoop=1;jettySize=auto;html=1;" edge="1" parent="1" source="I1mloNp9cYX9lCciqNsm-1" target="I1mloNp9cYX9lCciqNsm-2">
          <mxGeometry relative="1" as="geometry" />
        </mxCell>
        <mxCell id="I1mloNp9cYX9lCciqNsm-1" value="Power Supply" style="rounded=1;whiteSpace=wrap;html=1;" vertex="1" parent="1">
          <mxGeometry x="120" y="320" width="120" height="60" as="geometry" />
        </mxCell>
        <mxCell id="I1mloNp9cYX9lCciqNsm-8" style="edgeStyle=orthogonalEdgeStyle;rounded=0;orthogonalLoop=1;jettySize=auto;html=1;entryX=0;entryY=0.5;entryDx=0;entryDy=0;" edge="1" parent="1" source="I1mloNp9cYX9lCciqNsm-2" target="I1mloNp9cYX9lCciqNsm-3">
          <mxGeometry relative="1" as="geometry" />
        </mxCell>
        <mxCell id="I1mloNp9cYX9lCciqNsm-2" value="LISN" style="rounded=1;whiteSpace=wrap;html=1;" vertex="1" parent="1">
          <mxGeometry x="310" y="320" width="120" height="60" as="geometry" />
        </mxCell>
        <mxCell id="I1mloNp9cYX9lCciqNsm-3" value="HDL" style="rounded=1;whiteSpace=wrap;html=1;" vertex="1" parent="1">
          <mxGeometry x="625" y="310" width="145" height="80" as="geometry" />
        </mxCell>
        <mxCell id="I1mloNp9cYX9lCciqNsm-9" style="edgeStyle=orthogonalEdgeStyle;rounded=0;orthogonalLoop=1;jettySize=auto;html=1;" edge="1" parent="1" source="I1mloNp9cYX9lCciqNsm-4" target="I1mloNp9cYX9lCciqNsm-3">
          <mxGeometry relative="1" as="geometry" />
        </mxCell>
        <mxCell id="I1mloNp9cYX9lCciqNsm-4" value="MLD" style="rounded=1;whiteSpace=wrap;html=1;" vertex="1" parent="1">
          <mxGeometry x="310" y="170" width="120" height="60" as="geometry" />
        </mxCell>
        <mxCell id="I1mloNp9cYX9lCciqNsm-6" value="Chamber" style="text;html=1;strokeColor=none;fillColor=none;align=center;verticalAlign=middle;whiteSpace=wrap;rounded=0;" vertex="1" parent="1">
          <mxGeometry x="540" y="250" width="60" height="30" as="geometry" />
        </mxCell>
      </root>
    </mxGraphModel>
  </diagram>
</mxfile>
